<?xml version="1.0" standalone="no"?>
<!DOCTYPE svg PUBLIC "-//W3C//DTD SVG 20010904//EN"
 "http://www.w3.org/TR/2001/REC-SVG-20010904/DTD/svg10.dtd">
<svg version="1.0" xmlns="http://www.w3.org/2000/svg"
 width="2000.000000pt" height="2000.000000pt" viewBox="0 0 2000.000000 2000.000000"
 preserveAspectRatio="xMidYMid meet">

<g transform="translate(0.000000,2000.000000) scale(0.100000,-0.100000)"
fill="#000000" stroke="none">
<path d="M11540 15483 c-367 -13 -731 -88 -1140 -235 -117 -43 -322 -129 -317
-134 2 -2 55 9 118 25 248 63 360 76 644 76 297 0 391 -14 609 -86 627 -210
986 -756 986 -1501 0 -129 2 -149 15 -144 19 7 19 -2 0 -140 -61 -455 -222
-905 -493 -1379 l-29 -50 35 -116 35 -117 45 -6 c142 -19 242 -144 229 -286
-12 -141 -122 -240 -267 -240 -153 0 -260 112 -260 269 1 87 41 158 124 217
l30 20 -14 65 c-12 53 -15 60 -21 39 -4 -14 -8 -41 -9 -60 -1 -19 -4 -27 -7
-18 -2 9 0 50 6 90 l10 73 -130 452 -130 451 16 64 c13 51 155 531 170 575 5
16 -7 11 -212 -90 l-173 -84 -302 74 c-167 41 -315 77 -330 80 -22 4 -27 12
-33 52 -14 104 -86 200 -184 244 -66 31 -187 30 -256 -1 -63 -29 -119 -83
-153 -147 -23 -43 -27 -62 -27 -140 0 -78 4 -97 27 -140 32 -60 87 -114 148
-146 37 -20 60 -24 130 -24 105 0 164 24 230 93 l45 48 345 -89 c190 -49 347
-93 350 -97 3 -5 93 -302 199 -659 l194 -651 -59 -87 c-294 -435 -725 -887
-1164 -1223 -560 -430 -1174 -726 -1725 -834 -721 -141 -1329 6 -1708 414
-216 233 -356 568 -385 925 l-7 90 -18 -140 c-30 -245 -20 -515 29 -765 155
-789 715 -1297 1544 -1400 128 -15 484 -12 640 6 471 54 1050 250 1543 520
570 313 1101 727 1555 1215 530 568 930 1183 1185 1824 147 368 233 715 268
1075 14 151 6 469 -16 618 -103 704 -500 1205 -1125 1420 -250 86 -525 125
-810 115z"/>
<path d="M9150 15164 c0 -3 70 -109 155 -235 l156 -230 -61 -137 c-34 -75 -65
-141 -70 -146 -4 -4 -142 -50 -307 -101 -213 -66 -297 -97 -295 -106 10 -45
307 -739 316 -739 19 0 736 263 736 270 0 4 -70 152 -156 330 l-156 322 52
127 c29 69 53 127 54 128 3 4 505 93 523 93 10 0 104 -32 208 -71 l190 -70 -4
-46 c-7 -93 41 -187 122 -237 62 -38 164 -47 233 -21 139 53 205 213 145 351
-29 64 -64 101 -126 130 -93 44 -207 25 -281 -47 l-31 -30 -139 91 c-77 51
-138 95 -137 98 1 4 19 11 39 17 l38 10 -110 47 c-227 96 -512 167 -749 187
-177 15 -345 22 -345 15z m1650 -529 c32 -17 60 -61 60 -95 0 -34 -28 -79 -61
-95 -39 -21 -85 -12 -121 23 -23 21 -28 34 -28 72 0 38 5 51 28 72 44 41 75
47 122 23z"/>
<path d="M8070 14932 c-129 -60 -311 -158 -349 -189 l-22 -18 26 -140 c42
-227 116 -569 126 -579 5 -5 141 54 331 144 178 84 325 155 327 156 9 7 -287
679 -300 681 -8 2 -70 -23 -139 -55z"/>
<path d="M6909 13919 c-148 -222 -269 -488 -347 -762 -55 -191 -75 -192 185 9
125 97 233 182 240 188 8 8 9 37 2 111 -6 55 -13 199 -17 319 l-7 220 -56 -85z"/>
<path d="M7460 13543 c-151 -112 -281 -210 -287 -216 -10 -10 -6 -53 17 -206
27 -176 87 -491 95 -499 3 -3 631 353 647 367 4 4 -1 38 -13 76 -11 39 -56
207 -99 374 -44 167 -80 305 -82 306 -2 2 -127 -89 -278 -202z"/>
<path d="M6745 13027 c-294 -218 -266 -181 -284 -377 -12 -127 -14 -404 -3
-462 l7 -38 319 185 c176 101 323 188 328 193 6 6 -3 73 -21 163 -16 85 -42
237 -56 339 -14 101 -27 185 -28 186 -1 2 -119 -84 -262 -189z"/>
<path d="M7666 12651 c-180 -99 -332 -183 -337 -188 -17 -17 117 -482 185
-645 15 -34 18 -37 40 -28 64 24 664 274 682 284 21 11 21 12 -24 131 -24 66
-83 233 -131 372 l-87 252 -328 -178z"/>
<path d="M7055 11423 c-187 -69 -342 -127 -344 -129 -15 -14 190 -365 284
-488 14 -19 25 -16 347 78 183 54 336 101 341 105 4 4 -31 81 -77 172 -46 90
-105 215 -132 277 -32 76 -53 112 -63 111 -9 0 -169 -57 -356 -126z"/>
<path d="M8310 11000 c-206 -49 -376 -89 -377 -89 -12 -5 183 -305 296 -454
77 -103 100 -127 116 -123 11 2 180 26 375 52 195 26 357 49 359 50 2 2 -32
61 -76 131 -95 151 -169 279 -244 420 -30 57 -58 102 -64 102 -5 -1 -179 -41
-385 -89z"/>
<path d="M7437 10775 c-186 -46 -340 -85 -342 -87 -2 -2 38 -51 89 -108 83
-94 224 -225 343 -320 l43 -33 277 37 c153 21 288 40 300 43 19 4 14 14 -59
106 -83 107 -298 422 -298 438 0 12 35 19 -353 -76z"/>
</g>
</svg>
